<svg xmlns="http://www.w3.org/2000/svg" viewBox="0 0 2149 299">
  <g fill="#1c3448">
    <path d="m1082.4 29.3 7 .2q10.7.8 17.3 9.4l3 5.3q-7.4 6.5-17.2 7.8a3 3 0 0 1-2.6-1.4l-3-5.4-.1-.6-.8-7.4a.4.4 0 0 0-.8 0l-.7 7.4-.5 1.4-3.1 5.1a2 2-69.5 0 1-2.1 1c-5.8-1-13-3.2-16.6-8l2.4-5q2.6-3.2 4.5-4.7 5.7-4.5 13.3-5"/>
    <path d="m1105.2 50.3.9-1a.2.2 0 0 1 .3.4l-.4.6-.7 5.7a1 1 0 0 1-.7 1l-3.5 1.5a.3.3 0 0 1-.3-.4q.3-.4 2.6-1.2a1 1 0 0 0 .8-1l.8-5.1z"/>
    <path d="M1067.5 55.2q-2-1.8-1.7-4.4l.5-.4q.3 0 .5.5v.3q-.8.8 1 3.8a.2.2 0 0 1-.3.2"/>
    <path d="M1067.3 50.7q1.8.6 2.6 1.2l.1.3q.1.4-.2.7h-.3l-2.3-2a.1.1 0 0 1 .1-.2"/>
    <path d="m1064.3 54.6 2.2 1.5a.3.3 0 0 1-.2.5q-1.2-.3-2.4-1.6t-1.5-2.5a.3.3 0 0 1 .5-.2q.9 1.7 1.4 2.3"/>
    <path d="M1096.3 60q-1.2.7-2.4.6a.7.7 0 0 1-.3-1.3l.7-.4a1 1 75.2 0 0 .6-1v-3.5l.3-.5 2.7-1.4a.3.3 0 0 1 .5.3v.4l-.2.2q-1.5.6-2.4 1.3a1 1 0 0 0-.2 1q.3.8.2 2.5a1 1-67.6 0 0 .4 1l.1.2a.4.4 0 0 1 0 .6"/>
    <path d="M1075 59.7q-.4-.2-3.7-.8-.8-.1-2.2-1.2a.3.3-50.6 0 1 0-.5l.2-.1 3.3 1.8a1 1 0 0 0 1.3-1l-.4-4.4a.5.5 0 0 1 .6-.5l4.1 1.2v.3q-1.2.2-2.7-.1a.6.6 0 0 0-.7.6l.4 4.7a.1.1 0 0 1-.2 0"/>
    <path d="M1091.6 54.1a.8.6 2.3 0 1-1.1.9q-.4-.3-.5-1a.4.4-81.3 0 1 .5-.4z"/>
    <path d="M1081 54.5c1.2 1.8.8 3.4 1.5 5.8q.1.6-.5.9a.6.6-1.8 0 1-.8-.7q.6-1.4.2-3l-.7-2.9a.1.1 19.7 0 1 .2 0"/>
    <path d="M1111 54.1q3.5 5.2 3.5 11.6l.4 1q4.6 4.6 4 12.3-.6 6.7-6 10.7l-3.6 2.7q-2.8 0-3.2 2.1-2 5.3-6 9.2-2.2 1.2-4.4 2.8-1 .7-4.7.8h-.3l-4.2 2a2 2 0 0 1-1.5 0l-4.4-2h-.2q-3.7-.1-4.5-.7l-4.6-3q-4-3.5-5.7-8.4l-.7-1.5q-.3-.7-1-1l-1.8-.3-2.6-1.8c-5.9-3.7-8-10-6.8-16.9q.7-4 3.7-7a1 1 68.2 0 0 .4-1q0-6.5 3.4-11.4 15 12.3 34.5 8.2 9.5-2 16.3-8.4"/>
    <path d="m1067.8 57.2-.7-.3a.4.3-18.6 0 1 .3-.5q.3 0 .7.4a.2.2 0 0 1-.3.4"/>
    <path d="m1098 59 1-1.3a.3.3 0 0 1 .6.1q0 .3-1 1.4a.4.4 0 0 1-.6-.2"/>
    <path d="M1078.5 59.8a.8.6-37.9 0 1-1.4 0q0-.5.4-1.6a.3.3 0 0 1 .5 0q.7 1 .5 1.6"/>
    <path d="m1090 61 .1-1.9a1 .8 71.6 0 1 1.6 1q-.2.5-1.1 1.2a.4.4 0 0 1-.6-.2"/>
    <path d="M29.3 158q.5 3.7-.4 7.2l-.7 1.3-1.8 2.2-.5 1-.2 3q-1 .4-2 .4-1.5-.1-1.5-1c0-2 .1-3-1.4-4.4-3-3-2.4-7.9-1.9-11.5q1-16 4.6-31.3a.4.4 0 0 1 .8 0c2.9 10.8 4.2 22 5 33"/>
    <path d="M11.8 154.2q.5 5 1.6 9.9 1.4 6.4 1.8 9.9c1.2 10.6 2.4 16.6 1.5 24.3a7 7 0 0 1-2.9 4.8q-1.4 1.1-1.7 2.8a1.5 1.5 0 0 1-2.9.2l-.3-1.4a2 2-80.2 0 0-.8-1c-4.7-3.5-4-9.5-3.4-15.3q.5-5.5 2-17.2l2.1-10.5q.8-3.4 1.2-6.7 0-1.7.7-3a.2.2 0 0 1 .4 0q.6 1.4.7 3.2"/>
    <path d="M1129 153.4q4.5 4.8 10.6 2.6.9 6 .6 12l-.3 8.5-.2 16.8q-.5 19-3.3 44.3-.9 7.9-2 15.7l-.5 3.3q-2.8 24.4-5 33.8-1.4 6.2-1.6 8.6h-20.4q0-.3-.4-.3-.6 0-.6.3h-16.4q-.7-.4-.9 0h-43.1l-3.2-.3q8.2-1.3 14.7-5.7c14.6-10 25.2-25.1 34.4-40.4a8.4 7.7-21 0 0 .6-1.1q1-2.7 3-5.5a.5.5-83.6 0 0-.6-.8q-.8.4-1.6.2a.5.5 0 0 1 0-1q1.2-.3 2.2 0a1 1-65.5 0 0 1.2-.3 366 366 0 0 0 32.8-90.7m-7.2 87.5c-4.2 18.7-9.6 38-15.6 57a.4.4 0 0 0 .2.5.4.4-72 0 0 .5-.2 615 615 0 0 0 16-57q6.3-29.1 9.8-58.5a.4.4-82.9 0 0-.4-.4.4.4 0 0 0-.5.3 670 670 0 0 1-10 58.3m-22.8 35.8q-5 11.3-9.7 20.9l-.1.3a.3.3 0 0 0 .5 0q5.2-9.8 9.9-20.9 5-11 8.7-21.5a.3.3 0 0 0-.4-.3l-.2.3q-3.7 10-8.7 21.3"/>
    <path d="M347.7 197.7q-3.4.7-5.8-.2-.9-3.7-.7-7 .7-10.9 3.5-21.9a.5.5 0 0 1 1 0q2.5 10.8 2.9 21.9.1 4-.9 7.2"/>
    <path d="m355.5 198.1-5.4-.3q.2-9.4 1.8-18 .2-.8.6-1a.6.6 0 0 1 .9.4q2 9.6 2 19"/>
    <path id="sea" d="M0 220h2149v80H0z"/>
  </g>
  <g fill="#b15d3b">
    <path d="m1089.4 29.5-7-.2 3-7.5a.3.3 0 0 1 .6 0q1 4.1 3.4 7.7"/>
    <path d="m1064.6 39-2.4 5q-.9-.4-2-.5l-.2.2q-.1.3-.1 0 0-.6-.4-.4l-1.3-11a.3.3 0 0 1 .5-.2c.7.8.8 2 1.8 2.9q2.1 1.8 4 4"/>
    <path d="m1112.2 42.7-.4.6q-.2.2-.7.2-1 0-1.4.6l-3-5.2q3.9-3.2 6.2-7a.3.3 0 0 1 .5.2z"/>
    <path d="M1065.5 49.8a.1.1 0 0 1 .3 0q.2.2 0 .4h-.1z"/>
    <path d="M1103.6 50.5h.3l.2.3a.1.1 0 0 1 0 .2q-.6.2-1.3 1.1l-.4.1-.3-.2v-.3q.7-.9 1.5-1.2"/>
    <path d="M1108.6 52.8q0 1.8-2.1 3a.3.3 0 0 1-.4-.3l2-3a.3.3 0 0 1 .5.3"/>
    <path d="M1099.8 57h-.3q-.2-.4.1-1a.3.3 0 0 1 .5 0z"/>
    <path d="M1090.1 57.2q0-.7.2-1.1a.3.3 0 0 1 .5 0q.2.8-.1 1.3a.3.3 0 0 1-.6-.2"/>
    <path d="M1085.3 61q.7-.3 1.4 0a.3.3 0 0 1 0 .5q-.8.5-1.3.3a.5.5 42.6 0 1-.1-.9"/>
    <path d="M1064 92.8q-.3-.2-.6-.1a.5.5-14.1 0 0-.5.7q.2.5.7.8.3.3.7 0l.6-.5.7 1.5q-1-.2-1.5 0t-.5 1.3q.8 9 1 14.8.2 1.5-1.2 2.8h-.7q-1-1.6-1-2.3l.4-19.4z"/>
    <path d="M74.7 135.5q2.2 3.6 5 5.5a.5.5 0 0 1-.2.8q-6.5.6-13 .4-1.6 0-5.9-1.3 7.8-4.8 14.1-5.5"/>
    <path d="M158.4 137.4c4.4 3 9.5 5.3 13.1 9.3a.3.3 0 0 1-.2.4c-2 .2-3.5-.8-5-2a3.6 3.5 75.6 0 0-.6-.3l-7.6-3.4a3.2 3.1-46.2 0 0-2.8 0q-3.5 1.9-7.3 4.3-2.3 1.5-5 .9a.4.4 0 0 1 0-.8l11-5.6.5-.7.3-1.2q2.8-2 3.6-.9"/>
    <path d="M1132.5 139.9q0 1.3-1.7 2.1a1 1-5.1 0 0-.7.8q-.6 1.9-1.6 3a1 1 0 0 0-.4 1.1c.4 3.6 1.6 4.6 4.4 6.3q4.7 2.8 8.3-1.3h.3l.3.1v.7q-2.6 3.4-6.5 2.7-3.2-.5-6.7-4.7-1.2-1.4-1.1-4.2l-.5-.5a.4.4 0 0 0-.5.4q-.2 4.2 2.9 7a366 366 0 0 1-32.8 90.7 1 1-65.5 0 1-1.2.4q-1-.4-2.2 0a.5.5 0 0 0 0 .8q.8.3 1.6 0a.5.5-83.6 0 1 .6.7q-2 2.8-3 5.5a8.4 7.7-21 0 1-.6 1.1c-9.2 15.3-19.8 30.5-34.4 40.4q-6.5 4.4-14.7 5.7l-4.2.3h-5.8a12 12 0 0 1 3.6-.4h-.2q-1.9-.5-3.4-.6c-10.5-1-17-15.4-19.7-24.4q-1.2-4-2.5-10.7a11.7 10.3-75.2 0 0-.5-1.5q-3.3-9.6-3-15 .3-8.5 3.3-21 .4-1.7.6-3.9l-.2-.8-.3-.4q1.3-3 1.9-6.4 3.7-22.3 8.5-49.7c1.3-7.8 4.1-15.2 10.6-20q6.3-4.6 16.5-6.2 1.5 1 3 2.8 1 1.2 4.4 2.8 29.3 13.3 59.4 1 5.8-2.3 9.3-6.5.7-.8 1.4-.6zm-86 104.2q-3.5-.7-4.4-5.3-1.3-7.2-1.5-10.3a1 1 0 0 0-.7-.6 1 1-86.2 0 0-.8.7l-1.4 11q-.6 4-2 5.4l-.1.8 4 13.5a.6.6 0 0 0 1 0 20 20 0 0 1 5.9-8.4l.3-.8.2-5.3z"/>
    <path d="m1135 153.7-4-2.6-.5-.5q-2-3.1-.3-6.2l.7-.8q4.2-3 8.7.6 2.6 2 2 5.5l-.4.8q-2.5 2.3-5.5 3.3zm-3.9-7.9a4.7 4.3-155.1 0 0 2.5 6 4.7 4.3-155.1 0 0 6-2 4.7 4.3-155.1 0 0-2.4-6 4.7 4.3-155.1 0 0-6 2"/>
    <path d="M1144.5 148.6q4 4.6 5.3 10.4 2 9.3 3.4 18c2.8 17 4.4 24.9 7 42l.3.9.3.4q2 10.9 3.5 21.6.8 5-.2 9.5-.7 3.7-2.2 8-7.9 8-11.7 18.5c-2.8 7.8-.9 13.6.3 21.1h-10q-.7-.3-1.2 0h-12q.2-2.4 1.7-8.6 2.1-9.3 5-33.8l.6 23.5q0 3.1-1.4 17.8l.4.6.6-.4q3.3-18.9 1.8-39.6-.2-3.3-1.6-5.2 1.1-7.8 2-15.7 2.8-25.4 3.3-44.3l.2-16.8.3-8.4q.3-6-.6-12.1 3-1 4.9-7.4"/>
    <path d="m60.8 149.8.2 22a1.4 1.4 6.7 0 0 1 1.3c9.5 2.3 18.8 1.6 28.2 2 11.9.5 20.3-.2 30.5-.2q1.3.5 2.5.3 6 1.4 10 .1l1.4-9a.3.3 0 0 1 .5 0l.5 7.9q0 1.5.9 1.9t2.1-.5q.3 0 .5-.2.6-.2 1-.8l.2-.5 1.7-18.6.1-.2q1.5-1.7 4.3-.3a.1.1 0 0 1 0 .3q-1.3-.2-2.2.3l-.4.5q-1 9-.2 18.1l-.2.6-3.6 3.6a1 1 0 0 0 .6 1.6l38.4 1.4 20.3.3.3-.4v-13.8a2 2 0 0 1 .8-1.4q1.4-.9 3.6-1l11.7-.3c.5 4 .3 8.1 1 11.8q.8 5.5-.1 10.8a1.5 1.5 0 0 0 1.3 1.8l14.5 1.4q2 .2 5 1a1 1 0 0 0 1-.8l.1-16.4 16 .3.4 20a1 1 0 0 0 .5.8c6 2.4 14.4 1 18 .8a.4.4-4.1 0 1 .4.4v.5a.4.4 0 0 1-.3.5l-5.6.5-.6.6.7 20.8.6.5h13l.6-.6-.2-7.5a.4.4 0 0 1 .8-.2c3.2 6.2 9.1 6.6 14.8 9.3l-32.6.3 1.3-1.4.2-.5v-20.4a1 1 0 0 0-.8-.8H222a1 1 0 0 0-1 1.1q0 6.8 1 14.5.3 3.5 1.9 7.3h-4.7q-.5-.7 1-1.1l.5-.6-1-25a1 1 0 0 0-1-1.1l-13.2-.5a1 1 0 0 0-1 1.3q.9 3.1.9 6.5-.2 8.7 0 18.1a.4.4-.7 0 1-.5.5h-.2a.4.4 0 0 1-.4-.4v-20.4a1 1 0 0 0-1-1c-11.8.4-24.8 1.4-37-.2-6.7-.9-16.4.6-21.8.4q-13.2-.4-16.7-.3a1 1 0 0 1-1-.8l-1.2-3.8a1 1-4.3 0 0-.7-.6q-12.7-1.7-25-1a1 1 86.6 0 0-1 1q.8 10.3.1 21-.2 3 1.5 8l-2.1.2-98.4-.2v-66.9l10-.3q-.4 3.3-1.2 6.7-1.7 7.5-2 10.5-1.6 11.7-2.1 17.2c-.5 5.8-1.3 11.8 3.4 15.2a2 2-80.2 0 1 .8 1.1l.3 1.4a1.5 1.5 0 0 0 2.9-.2q.3-1.7 1.7-2.7a7 7 0 0 0 2.9-4.9c.9-7.7-.3-13.7-1.5-24.3q-.4-3.5-1.8-9.9-1-5-1.6-9.9l7.1 2c-.5 3.6-1 8.6 2 11.5 1.4 1.5 1.4 2.3 1.3 4.4q0 .9 1.4 1l.5 8.8c.4 6.7-.3 13 .3 19q.2 2.5 1.4 5a2 2 0 0 0 1.5 1.1l20.7 2a1 1 0 0 0 .9-.8l.8-22.6a8 7.8 44.5 0 0 0-1.2l-1-10.6-.3-.4q-6.5-1-7.6-1-6.6.5-8 .3-3.7-.5-7.1 0l.2-3 .5-1 1.8-2.2.7-1.3q.9-3.5.4-7.3 1.3.6 2.3-.7.8-3 .3-6.2.1-.6.5-.9.2-.2.8-.2z"/>
    <path d="m161.3 155.8-.4 17.6-.2 1.2a2 2 0 0 1-3.4 0v-1.3l.9-12.8v-4.7a1.2 1.2 0 0 1 1-1.3q2-.3 2.1 1.3"/>
    <path d="M164.5 166.5q.1-4.7-.1-9.5 0-.9-.7-2.2 1.5-1.3 4-.3a1 1 0 0 1 0 1.3q-.7.4-.7 1.3-.3 5.6 0 17.7a.6.6 0 0 1-1 .5l-.3-.2a2 2-74.3 0 1-.8-1.5z"/>
    <path d="m175.4 156 .1 18q-1.8 1.6-3.8 1.5.2-9.1 0-18.2 0-1.5-.7-2.5.7-.8 1.7-.2l.4.4q1.8 3.3 1.8 4.8 0 6.5.2 11.2l.2-.2v-.1z"/>
    <path d="m152.1 169.3-1.1 5.3a1 1 0 0 1-2 0l-.7-9.2a2 2-5.1 0 1 1.5-1.8h.3a1.2 1.2 0 0 1 1.4 1z"/>
    <path d="M299.7 181.9H298a.3.3 0 0 0-.2.5l2 1.3a2 2 0 0 1 .6 1.1l.5 12a1 1 0 0 0 1 1c7.2.6 13.3 1.5 20.6-.5l4.4.6a1 1-86.3 0 0 1-.8q0-1.3.4-2a1 1-74.3 0 1 .8-.5l7.3-.1q2.9 0 2 3.4l.3 21.3.4.7 2 1.3h-15.6l-4.8-.3-.3-.3v-.3l.3-.3 4 .2a1 1 0 0 0 .8-.8l.7-18.1a1 1 0 0 0-1-1.2q-5.2-.2-15.4-.2-4.7 0-7.2-.6c-9.4-2-19-2.5-27.8.3a.5.5 0 0 1-.4-.8l5.5-3.6a1 1 76.9 0 0 .5-.8l.8-6v-5.6a1 1 0 0 1 .9-.9z"/>
    <path d="M1122.9 241.1a615 615 0 0 1-16 57 .4.4-72 0 1-.5.3.4.4 0 0 1-.2-.5c6-19 11.4-38.3 15.6-57s7.4-38.6 10-58.3a.4.4 0 0 1 .5-.3.4.4-82.9 0 1 .4.4 618 618 0 0 1-9.9 58.4"/>
    <ellipse rx="7.1" ry="1.6" transform="rotate(-85 128 78.6)"/>
    <path d="M483.3 209.2q-4.6 1.2-9.3 1.2-11.6 0-22.8-.6a.5.5 79.1 0 0-.5.7q2.8 6.1 8.4 10.7H446l-.1-.5.1-.4.4-.1.4-.4 1.1-12.2a1 1 2 0 0-1-1.2q-16.1.4-27.5 0-4-.2-7.5-1.6a.2.2 0 0 1 0-.4h16l19 .1a2 2 71.8 0 1 1.5.8q1 1.3 2.6 2a2.2 2 56.2 0 0 .7.1z"/>
    <path d="m494 210 7.2.3a1.6 1.5 61.4 0 1 .7.3l3.1 1.9q-.4 1.6-2.9-.1l-1-.3q-4.5.2-8.9-1.2l-.1-.2q-.2-.8 2-.8"/>
    <path d="m538.7 220.2-3.8.2c-3.1.3-7.4-.5-9.5 1.8l-.9.5q-3.5.8-6.8-.3l.4-.3q0-.4-.2-.7-.4-.3-.6-1.2z"/>
    <path d="M1099.6 277q-4.7 11.1-10 21l-.4-.1v-.3q4.9-9.6 9.8-20.9t8.7-21.2l.2-.3.3.3q-3.7 10.4-8.6 21.5"/>
  </g>
  <g fill="#b47852">
    <path d="M1109.7 44.2q.3-.7 1.4-.7.5 0 .7-.2l.4-.6-1.2 11.4q-6.8 6.4-16.3 8.4-19.6 4-34.5-8.2l-.7-11q.4-.2.4.5 0 .2 0 0l.3-.3q1.1.1 2 .5c3.6 4.9 10.8 7.1 16.6 8.1a2 2-69.5 0 0 2-1l3.2-5.1.5-1.4.7-7.4a.4.4 0 0 1 .8 0l.8 7.4.2.6 2.9 5.4a3 3 0 0 0 2.5 1.4q10-1.2 17.3-7.9m-4.7 6.5-.7 5.2a1 1 0 0 1-.9 1q-2.3.8-2.6 1.2a.3.3 0 0 0 .3.4l3.5-1.6a1 1 0 0 0 .7-.9l.7-5.6.4-.7a.2.2 0 0 0-.3-.3l-.9.9zm-39.5-.9.2.4h.1q.2-.2 0-.5a.1.1 0 0 0-.3.1m2 5.4a.2.2 0 0 0 .3-.2q-1.8-3-1-3.8v-.3q-.2-.4-.5-.5l-.5.4q-.2 2.6 1.7 4.4m36-4.7q-.7.3-1.4 1.2v.3l.3.2h.4q.7-1 1.2-1.2a.1.1 0 0 0 0-.2v-.2zm-36.3.5 2.3 1.9h.3q.3-.2.3-.7l-.2-.3q-.8-.6-2.6-1.2a.1.1 0 0 0-.1.3m-3.3 4q1.2 1.3 2.4 1.6a.3.3 0 0 0 .2-.5q-1.6-1-2.2-1.6-.5-.5-1.4-2.2a.3.3 0 0 0-.5.2q.3 1.2 1.5 2.5m44.7-2.2a.3.3 0 0 0-.6-.2l-2 2.9a.3.3 0 0 0 .5.4q2.1-1.3 2.1-3.1m-12.2 6.6-.2-.1a1 1-67.6 0 1-.4-1.1q0-1.7-.2-2.6a1 1 0 0 1 .2-.9q.9-.7 2.4-1.3l.2-.2v-.4a.3.3 0 0 0-.5-.3l-2.7 1.4-.3.5v3.5a1 1 75.2 0 1-.6 1l-.7.4a.7.7 0 0 0 .3 1.3q1.2 0 2.4-.6a.4.4 0 0 0 0-.6m-21.2.3-.5-4.7a.6.6 0 0 1 .8-.6q1.5.3 2.7.1v-.3l-4.1-1.2a.5.5 0 0 0-.6.5l.4 4.5a1 1 0 0 1-1.4.9l-3.1-1.8h-.1l-.2.1a.3.3-50.6 0 0 0 .5q1.4 1 2.2 1.2 3.3.6 3.7.8a.1.1 0 0 0 .2 0m16.4-5.6-1-.5a.4.4-81.3 0 0-.6.4q0 .7.5 1a.8.6 2.3 0 0 1.1-.9m-11 .5.8 2.9q.4 1.6-.2 3a.6.6-1.8 0 0 .8.7q.6-.3.5-1c-.7-2.3-.3-4-1.6-5.7a.1.1 19.7 0 0-.2.1m19.2 2.3.3-.8a.3.3 0 0 0-.5-.1q-.3.6-.1 1zm-9.1.5q.3-.5.1-1.2a.3.3 0 0 0-.5-.1q-.2.4-.2 1.1a.3.3 0 0 0 .6.1m-22.6-.6q-.4-.5-.7-.4a.4.3-18.6 0 0-.3.5l.7.3a.2.2 0 0 0 .3-.4m30.5 2.4q1-1.1 1-1.4a.3.3 0 0 0-.6 0l-1 1.2a.4.4 0 0 0 .6.1m-20.1.6q.2-.5-.5-1.7a.3.3 0 0 0-.5 0q-.4 1.2-.4 1.7a.8.6-37.9 0 0 1.4 0m12.1 1.5q1-.7 1-1.2a1 .8 71.6 0 0-1.5-1v2a.4.4 0 0 0 .5.2m-5.3-.4a.5.5 42.6 0 0 0 1q.6.1 1.4-.4a.3.3 0 0 0 0-.6q-.7-.2-1.4 0"/>
    <path d="M1109.3 92.4q-.3 9.7.2 19.6 0 1.5-.6 1.8a1.5 1.4 78.5 0 1-2-1.5q.6-9.3.7-15.5 0-2.2-1.5-2.2.4-2.2 3.2-2.2"/>
    <path d="M1100 103.7v10.8q0 4.8 1.4 10.3c.6 2.2 2.4 3.8 4.4 5q8.8 5.5 17.8 8.3-3.5 4.2-9.3 6.5-30.1 12.3-59.4-1-3.5-1.6-4.5-2.8-1.4-1.8-3-2.8 7.6-2 17.3-7.6 5.5-3.2 6-8.9 1-8.8.6-17.8 2.3 1.3 4.6 2.9.8.6 4.5.6h.2l4.4 2a2 2 0 0 0 1.5 0l4.2-1.8.3-.1q3.7-.1 4.7-.8 2.1-1.6 4.4-2.8"/>
    <path d="M120.7 175c-10.2 0-18.6.6-30.5.1-9.5-.4-18.7.3-28.1-2a1.4 1.4 6.7 0 1-1.1-1.4l-.2-21.9-.2-8.9q4.3 1.3 5.8 1.3 6.6.2 13.1-.4a.5.5 0 0 0 .2-.8q-2.8-1.9-5-5.6 14.6.5 28.6.3c1.8 0 3.6 1.5 5.1 2l12.3 3.4.4.2q.4.6-.2 1.4l-.2.7c-.3 3.1.3 7.2-.1 11.4q-1 10 .1 20.1M105 159.7a2.6 1-92.1 0 0-.9 2.7 2.6 1-92.1 0 0 1 2.6 2.6 1-92.1 0 0 1-2.7 2.6 1-92.1 0 0-1.1-2.6m-7.8 1.4A1.2 1.2 0 0 0 96 160a1.2 1.2 0 0 0-1.2 1.2 1.2 1.2 0 0 0 1.2 1.1 1 1 0 0 0 1.1-1.1"/>
    <path d="M175.4 156v14.7l-.1.1-.2.3q-.3-4.8-.2-11.3 0-1.5-1.8-4.8l-.4-.4q-1-.6-1.7.2c-1.6-.7-3 .1-3 1.8V174q.1 1.4 1.3 2 .8.3 2.4-.6 2 .1 3.8-1.5 2.4 3.2 3.3 7.4l-38.4-1.4a1 1 0 0 1-.6-1.6l3.6-3.6.2-.6q-.8-9 .2-18.1l.4 18.6a1 1 0 0 0 1 1.2h.4a1.4 1.4 3.6 0 0 1.4-1.3l.7-18-.4-.7q-1.2-.7-3-.3.8-.5 2-.3a.1.1 0 0 0 .1-.3q-2.8-1.4-4.3.3l-.1.2-1.7 18.6-.2.5q-.4.6-1 .8.5-.4.5-.7.5-8.8.2-18a1.4 1.4 0 0 0-1.4-1.4h-.5a1.4 1.4 0 0 0-1.4 1.3q-.6 10.4-.1 18 0 1.4 2.2 1-1.3.8-2.1.5t-1-2q0-3.9-.4-7.8a.3.3 0 0 0-.5 0l-1.3 9q-.2-5 .3-8.8c.4-3.8 0-6-.2-9.2l-.4-.9q-1.2-1.1-2.9-.2-2.6 1.4-3.4-1-1.3-.7-.6-2 1.4-2.6-.7-3.6a.6.6 0 0 1 .1-1.1l29.3-10.2-.3 1.2a1 1 0 0 1-.6.7l-11 5.6a.4.4 0 0 0 .1.8q2.7.6 5-.9 3.8-2.4 7.3-4.2a3.2 3.1-46.2 0 1 2.8-.1l7.6 3.4a3.6 3.5 75.6 0 1 .6.4c1.5 1 3 2.1 5 1.9a.3.3 0 0 0 .2-.4c-3.6-4-8.7-6.2-13.1-9.3l19.7 10.2a.6.6 0 0 1-.1 1.2q-1.8.3-1.7 2.2.3 2.7-.9 5m-14.5 17.4.4 1.8a1.5 1.5 0 0 0 3-.3l.2-8.4.3 7.1a2 2-74.3 0 0 .9 1.5l.3.2a.6.6 0 0 0 1-.5q-.3-12.2 0-17.7 0-1 .7-1.3a1 1 0 0 0 0-1.3q-2.5-1-4 .3-.6-.9-1.6-.4-.3.2-.8 1.4 0-1.6-2.2-1.3a1.2 1.2 0 0 0-1 1.3v4.7l-.8 12.8v1.2a2 2 0 0 0 3.4.1zm-8.8-4.1-.6-4.6a1.2 1.2 0 0 0-1.4-1.1h-.3a2 2-5.1 0 0-1.5 1.8l.8 9.1a1 1 0 0 0 1.9.1zl.2 5.7a1.2 1.2-3.3 0 0 1.2 1.1l1.6-.1a1.2 1.2-4.6 0 0 1.1-1.3l-.4-6.4a1.1 1 75.1 0 1 0-.2l-.2-12.5a1 1 0 0 0-1.5-.6l-1 1a4 4-22.7 0 0-1 2.6z"/>
    <path d="M1144.5 148.6q-1.8 6.4-4.9 7.4-6.1 2.2-10.6-2.7-3.2-2.7-2.9-7a.4.4 0 0 1 .5-.3l.5.5q-.1 2.8 1.1 4.2 3.5 4.2 6.7 4.7 3.9.7 6.6-2.7l-.1-.7-.3-.2h-.3q-3.6 4.2-8.3 1.4c-2.8-1.7-4-2.7-4.4-6.3a1 1 0 0 1 .4-1q1-1.2 1.6-3.1a1 1-5.1 0 1 .7-.8q1.7-.8 1.7-2.1 9.6-.2 12 8.7m-8.8 5.2q3-1 5.5-3.3l.4-.8q.6-3.4-2-5.5-4.5-3.7-8.7-.6l-.7.8q-1.8 3 .3 6.2l.5.5 4 2.6z"/>
    <ellipse rx="4.7" ry="4.3" transform="rotate(205 584 -51.4)"/>
    <path d="m238.3 174.4-.1 16.4a1 1 0 0 1-1 .8q-3-.8-5-1l-14.5-1.4a1.5 1.5 0 0 1-1.3-1.8q.9-5.3 0-10.8c-.6-3.7-.4-7.8-.9-11.8l22 .4.4.5z"/>
    <path d="M23.7 173q1 .1 2-.3 3.4-.5 7.1 0 1.4.2 8-.3 1.1 0 7.6 1l.4.4.9 10.6a8 7.8 44.5 0 1 0 1.2l-.8 22.6a1 1 0 0 1-.9.7L27.3 207a2 2 0 0 1-1.5-1q-1.2-2.6-1.4-5.1c-.6-6 0-12.3-.3-19zM40 192.9a7 1.6-85.4 0 0-2.2 7 7 1.6-85.4 0 0 1 7.2 7 1.6-85.4 0 0 2.2-7 7 1.6-85.4 0 0-1-7.2"/>
    <path d="m281.2 188.3-.8 6.1a1 1 76.9 0 1-.5.8l-5.5 3.6a.5.5 0 0 0 .4.8 54 54 0 0 1 27.8-.3q2.5.6 7.1.6 10.3 0 15.4.2a1 1 0 0 1 1.1 1.2l-.7 18.1a1 1 0 0 1-.8.8l-4-.2-.3.3v.3l.3.3 4.8.3h-28.1c-5.7-2.8-11.6-3.2-14.8-9.4a.4.4 0 0 0-.8.2l.2 7.5-.6.6h-13l-.6-.5-.7-20.8.6-.6 5.6-.5a.4.4 0 0 0 .4-.5v-.5a.4.4-4.1 0 0-.5-.4c-3.6.2-12 1.6-18-.8l-.4-.7-.4-20.1 19.1.3a1 1-89.7 0 1 1 1v10.8a1 1 3 0 0 .9.9z"/>
    <path d="M322.5 197.3c-7.3 2-13.4 1.1-20.7.6a1 1 0 0 1-1-1l-.4-12a2 2 0 0 0-.6-1.2l-2-1.3a.3.3 0 0 1 .2-.5h1.7l19.4.4.5.5.5 13.1q0 1.6 2.4 1.4"/>
    <path d="M219.2 221.2H100.5q-1.7-5-1.5-8 .7-10.7 0-21a1 1 86.6 0 1 1-1q12.2-.7 25 1l.6.6 1.1 3.8a1 1 0 0 0 1.1.8q3.5-.1 16.7.3c5.4.2 15.1-1.3 21.8-.4 12.2 1.6 25.2.6 37 .3a1 1 0 0 1 1 .9v20.4l.3.4h.3a.4.4-.7 0 0 .5-.5q-.2-9.4 0-18.2a24 24 0 0 0-1-6.4 1 1 0 0 1 1.1-1.3l13.2.5a1 1 0 0 1 1 1l1 25-.5.7q-1.5.4-1 1"/>
    <path d="M347.7 197.7q-.2.9 2.4 0l5.3.4 22.7.4a6.7 6.6 52.8 0 1 1.7.3q4.2 1.1 11.2 1.5 8 .4 13.6.4 2.1 0 2.7 1.7.2 1 1.2 1 9.9 1 19.5 1h-16a.2.2 0 0 0-.1.4q3.5 1.4 7.5 1.5 11.4.5 27.5.1a1 1 2 0 1 1 1.2l-1.1 12.2-.4.4-.4.1-.1.4v.5H341.2l-2-1.3-.4-.7-.2-21.3q2.5.7 3.4-.4 2.4 1 5.8.2"/>
    <path d="m264.8 221.4-41-.2q-1.5-3.8-1.9-7.3-.8-7.7-1-14.5a1 1 0 0 1 1-1h43.6a1 1 0 0 1 .8.7v20.4l-.2.5z"/>
    <path d="M494 210q-2-.1-2 .7l.2.2q4.4 1.4 8.9 1.2l1 .3q2.5 1.7 3 0l12.2 7.8q.2.9.6 1.2l-58.8-.2q-5.6-4.6-8.4-10.7a.5.5 79.1 0 1 .5-.7q11.2.5 22.8.6 4.7 0 9.3-1.2z"/>
    <path d="m98.4 221.4-.3.3v.8l.3.4H0v-1.7z"/>
    <path d="m1134 256.6.4-3.3q1.4 1.8 1.6 5.2 1.5 20.7-1.8 39.6l-.6.4-.4-.6q1.5-14.6 1.4-17.8z"/>
    <path d="m1162 259.5-4 17.4c-1.6 6.8-4 14.7-5.9 22.1h-1.5c-1.2-7.6-3.2-13.3-.4-21.1q3.8-10.5 11.7-18.4"/>
  </g>
  <g fill="#dbb48c">
    <path d="M0 58.7v-4.2l14.6-2.8a60 60 0 0 1 22.3-.1 8 8 37.6 0 0 4.3-.6q22-9.1 46.1-6c7.9 1 16.2 4.7 21.7 6.4a11 11-39.2 0 0 4.2.4c5-.5 8.5-.8 13.6.5 13.5 3.3 25 3.9 40.6 5.4l.4.5v.3l-.2.2z"/>
    <path d="M1064 92.8q.6.2 1 1l-.7.4q-.4.3-.7 0-.5-.3-.6-.8a.5.5-14.1 0 1 .4-.7z"/>
    <path d="M32 151q.4 3.2-.4 6.2-.4-3.2.3-6.2"/>
    <path d="M133.3 175.3q-4 1.3-10.2 0 1.4.2 2.5-.2a1 1-5.3 0 0 .6-.7q1.6-9.7.5-19.2.8 2.4 3.4 1 1.7-1 2.9.3l.4.8c.2 3.2.6 5.4.2 9.2q-.5 3.8-.3 8.8m-3.2 0h2a1 1 0 0 0 .8-.8l-.1-15.4a2.8 1.3 89.8 0 0-1.4-2.8h-.7a2.8 1.3 89.8 0 0-1.4 2.8v15.4a1 1 0 0 0 .8.8"/>
    <ellipse rx="2.6" ry=".9" transform="rotate(-92 130.8 30.6)"/>
    <circle cx="96" cy="161.2" r="1.2"/>
    <path d="M100.5 221.2h123.4l40.9.2 32.6-.3h28l15.7.1h118l58.8.2q.3.3.2.7 0 .2-.4.3l-419.3.5-.3-.4v-.8l.3-.3z"/>
    <path d="m1042.3 298.7 3.2.3h-7.4z"/>
    <path d="M1089.5 299h-.9q.2-.4 1 0"/>
    <path d="M1106.9 299h-1q0-.3.6-.3.3 0 .4.3"/>
    <path d="M1140.5 299h-1.2q.5-.3 1.2 0"/>
  </g>
  <defs>
    <clipPath id="above-sea"><rect x="0" y="0" width="2149" height="220"/></clipPath>
    <clipPath id="in-sea"><rect x="0" y="220" width="2149" height="80"/></clipPath>
  </defs>
  <text x="500" y="250" font-family="Georgia, 'Times New Roman', serif" font-size="130" font-weight="600" fill="#dbb48c" letter-spacing="18" clip-path="url(#above-sea)">DIDO</text>
  <text x="500" y="250" font-family="Georgia, 'Times New Roman', serif" font-size="130" font-weight="600" fill="#b47852" letter-spacing="18" clip-path="url(#in-sea)">DIDO</text>
  <g>
    <animateTransform attributeName="transform" type="translate"
      values="1250,248; 2060,222" dur="60s" repeatCount="1" fill="freeze"/>
    <g>
      <animateTransform attributeName="transform" type="scale"
        values="0.55; 0.06" dur="60s" repeatCount="1" fill="freeze"/>
      <g>
        <animate attributeName="opacity" values="0;1;1;0.25;0"
          keyTimes="0;0.06;0.78;0.97;1" dur="60s" repeatCount="1" fill="freeze"/>
        <g transform="translate(-156,-71)">
          <path fill="#f8efdf" d="M44 23Q33 8 9 0q23 34-8 64 30-10 43-40"/>
          <path fill="#dbb48c" d="M61 34Q51 14 34 3q0 44-33 61 39-3 60-30"/>
          <path fill="#b47852" d="M69 40q-4-14-15-29-8 47-53 53 52-2 68-24"/>
          <path fill="#b15d3b" d="M72 59q0-6-2-10Q48 64 0 64q30 1 72-5"/>
          <line x1="36" y1="-6" x2="36" y2="0" stroke="#1c3448" stroke-width="1.4"/>
          <polygon fill="#b15d3b" points="36,-6 48,-3 36,-1"/>
          <rect fill="#1c3448" width="70" height="4" x="2" y="67" rx="2"/>
          <path fill="#f8efdf" opacity="0.55" d="M4 71 Q36 76 70 71 L68 73 Q36 77 6 73 Z"/>
        </g>
      </g>
    </g>
  </g>
</svg>